<?xml version="1.0" encoding="UTF-8" standalone="no"?>
<!DOCTYPE svg PUBLIC "-//W3C//DTD SVG 1.1//EN" "http://www.w3.org/Graphics/SVG/1.1/DTD/svg11.dtd">
<svg width="100%" height="100%" viewBox="0 0 913 1244" version="1.1" xmlns="http://www.w3.org/2000/svg" xmlns:xlink="http://www.w3.org/1999/xlink" xml:space="preserve" xmlns:serif="http://www.serif.com/" style="fill-rule:evenodd;clip-rule:evenodd;stroke-linecap:round;stroke-linejoin:round;stroke-miterlimit:1.5;">
    <g id="fichier" transform="matrix(1,0,0,1,-1149.85,-441.191)">
        <path id="feuille" d="M1948.82,472.441C1970.75,472.441 1991.78,481.152 2007.28,496.657C2022.79,512.162 2031.5,533.191 2031.5,555.118C2031.5,771.777 2031.5,1354.21 2031.5,1570.87C2031.5,1592.79 2022.79,1613.82 2007.28,1629.33C1991.78,1644.83 1970.75,1653.54 1948.82,1653.54C1786.19,1653.54 1426.41,1653.54 1263.78,1653.54C1241.85,1653.54 1220.82,1644.83 1205.32,1629.33C1189.81,1613.82 1181.1,1592.79 1181.1,1570.87C1181.1,1348.77 1181.1,755.906 1181.1,755.906L1464.57,472.441C1464.57,472.441 1791.49,472.441 1948.82,472.441Z" style="fill:none;"/>
        <clipPath id="_clip1">
            <path id="feuille1" serif:id="feuille" d="M1948.82,472.441C1970.75,472.441 1991.78,481.152 2007.28,496.657C2022.79,512.162 2031.5,533.191 2031.5,555.118C2031.5,771.777 2031.5,1354.21 2031.5,1570.87C2031.5,1592.79 2022.79,1613.82 2007.28,1629.33C1991.78,1644.83 1970.75,1653.54 1948.82,1653.54C1786.19,1653.54 1426.41,1653.54 1263.78,1653.54C1241.85,1653.54 1220.82,1644.83 1205.32,1629.33C1189.81,1613.82 1181.1,1592.79 1181.1,1570.87C1181.1,1348.77 1181.1,755.906 1181.1,755.906L1464.57,472.441C1464.57,472.441 1791.49,472.441 1948.82,472.441Z"/>
        </clipPath>
        <g clip-path="url(#_clip1)">
            <path id="corne" d="M1464.57,472.441L1181.1,755.906C1181.1,755.906 1298.22,755.906 1381.89,755.906C1427.55,755.906 1464.57,718.89 1464.57,673.228C1464.57,589.555 1464.57,472.441 1464.57,472.441" style="fill:none;stroke:rgb(128,128,128);stroke-width:62.5px;"/>
        </g>
        <path id="feuille2" serif:id="feuille" d="M1948.82,472.441C1970.75,472.441 1991.78,481.152 2007.28,496.657C2022.79,512.162 2031.5,533.191 2031.5,555.118C2031.5,771.777 2031.5,1354.21 2031.5,1570.87C2031.5,1592.79 2022.79,1613.82 2007.28,1629.33C1991.78,1644.83 1970.75,1653.54 1948.82,1653.54C1786.19,1653.54 1426.41,1653.54 1263.78,1653.54C1241.85,1653.54 1220.82,1644.83 1205.32,1629.33C1189.81,1613.82 1181.1,1592.79 1181.1,1570.87C1181.1,1348.77 1181.1,755.906 1181.1,755.906L1464.57,472.441C1464.57,472.441 1791.49,472.441 1948.82,472.441Z" style="fill:none;stroke:rgb(128,128,128);stroke-width:62.5px;"/>
        <g id="lignes">
            <g id="_2" serif:id="2" transform="matrix(0.701923,0,0,1,394.306,141.732)">
                <rect x="1322.84" y="897.638" width="614.173" height="47.244" style="fill:rgb(128,128,128);"/>
            </g>
            <g id="_1" serif:id="1" transform="matrix(0.923077,0,0,1,101.757,0)">
                <rect x="1322.84" y="897.638" width="614.173" height="47.244" style="fill:rgb(128,128,128);"/>
            </g>
        </g>
    </g>
</svg>
